<svg width="20" height="21" viewBox="0 0 20 21" fill="none" xmlns="http://www.w3.org/2000/svg">
<g clip-path="url(#clip0_77_302)">
<path d="M15.625 18.3125H4.375C4.29212 18.3125 4.21263 18.2796 4.15403 18.221C4.09542 18.1624 4.0625 18.0829 4.0625 18V3.00001C4.0625 2.91713 4.09542 2.83764 4.15403 2.77903C4.21263 2.72043 4.29212 2.68751 4.375 2.68751H11.875C11.9161 2.68727 11.9569 2.69515 11.995 2.7107C12.033 2.72625 12.0677 2.74917 12.0969 2.77813L15.8469 6.52813C15.8758 6.55733 15.8988 6.59196 15.9143 6.63003C15.9299 6.66811 15.9377 6.70888 15.9375 6.75001V18C15.9375 18.0829 15.9046 18.1624 15.846 18.221C15.7874 18.2796 15.7079 18.3125 15.625 18.3125ZM4.6875 17.6875H15.3125V6.87813L11.7469 3.31251H4.6875V17.6875Z" fill="none" stroke="none" stroke-width="0.4"/>
<path d="M15.625 7.06242H11.875C11.7921 7.06242 11.7126 7.0295 11.654 6.97089C11.5954 6.91229 11.5625 6.8328 11.5625 6.74992V2.99992C11.5628 2.93823 11.5814 2.878 11.6159 2.82684C11.6503 2.77568 11.6992 2.73587 11.7562 2.71242C11.8132 2.68849 11.8759 2.68195 11.9365 2.69363C11.9971 2.70531 12.0529 2.73468 12.0969 2.77805L15.8469 6.52805C15.8902 6.57199 15.9196 6.6278 15.9313 6.68842C15.943 6.74904 15.9364 6.81176 15.9125 6.86867C15.8891 6.92574 15.8492 6.97459 15.7981 7.00907C15.7469 7.04355 15.6867 7.06211 15.625 7.06242ZM12.1875 6.43742H14.8719L12.1875 3.75305V6.43742Z" fill="none" stroke="none" stroke-width="0.4"/>
<path d="M9.375 11.4375H6.5625C6.47962 11.4375 6.40013 11.4046 6.34153 11.346C6.28292 11.2874 6.25 11.2079 6.25 11.125V9.25C6.25 9.16712 6.28292 9.08763 6.34153 9.02903C6.40013 8.97042 6.47962 8.9375 6.5625 8.9375H9.375C9.45788 8.9375 9.53737 8.97042 9.59597 9.02903C9.65458 9.08763 9.6875 9.16712 9.6875 9.25V11.125C9.6875 11.2079 9.65458 11.2874 9.59597 11.346C9.53737 11.4046 9.45788 11.4375 9.375 11.4375ZM6.875 10.8125H9.0625V9.5625H6.875V10.8125Z" fill="none" stroke="none" stroke-width="0.4"/>
<path d="M9.6875 15.8125H6.25C6.16712 15.8125 6.08763 15.7796 6.02903 15.721C5.97042 15.6624 5.9375 15.5829 5.9375 15.5C5.9375 15.4171 5.97042 15.3376 6.02903 15.279C6.08763 15.2204 6.16712 15.1875 6.25 15.1875H9.6875C9.77038 15.1875 9.84987 15.2204 9.90847 15.279C9.96708 15.3376 10 15.4171 10 15.5C10 15.5829 9.96708 15.6624 9.90847 15.721C9.84987 15.7796 9.77038 15.8125 9.6875 15.8125Z" fill="none" stroke="none" stroke-width="0.4"/>
<path d="M13.75 13.625H6.25C6.16712 13.625 6.08763 13.5921 6.02903 13.5335C5.97042 13.4749 5.9375 13.3954 5.9375 13.3125C5.9375 13.2296 5.97042 13.1501 6.02903 13.0915C6.08763 13.0329 6.16712 13 6.25 13H13.75C13.8329 13 13.9124 13.0329 13.971 13.0915C14.0296 13.1501 14.0625 13.2296 14.0625 13.3125C14.0625 13.3954 14.0296 13.4749 13.971 13.5335C13.9124 13.5921 13.8329 13.625 13.75 13.625Z" fill="none" stroke="none" stroke-width="0.4"/>
<path d="M9.6875 7.0625H6.25C6.16712 7.0625 6.08763 7.02958 6.02903 6.97097C5.97042 6.91237 5.9375 6.83288 5.9375 6.75C5.9375 6.66712 5.97042 6.58763 6.02903 6.52903C6.08763 6.47042 6.16712 6.4375 6.25 6.4375H9.6875C9.77038 6.4375 9.84987 6.47042 9.90847 6.52903C9.96708 6.58763 10 6.66712 10 6.75C10 6.83288 9.96708 6.91237 9.90847 6.97097C9.84987 7.02958 9.77038 7.0625 9.6875 7.0625Z" fill="none" stroke="none" stroke-width="0.4"/>
<path d="M13.75 11.4375H11.25C11.1671 11.4375 11.0876 11.4046 11.029 11.346C10.9704 11.2874 10.9375 11.2079 10.9375 11.125C10.9375 11.0421 10.9704 10.9626 11.029 10.904C11.0876 10.8454 11.1671 10.8125 11.25 10.8125H13.75C13.8329 10.8125 13.9124 10.8454 13.971 10.904C14.0296 10.9626 14.0625 11.0421 14.0625 11.125C14.0625 11.2079 14.0296 11.2874 13.971 11.346C13.9124 11.4046 13.8329 11.4375 13.75 11.4375Z" fill="none" stroke="none" stroke-width="0.4"/>
<path d="M13.75 9.5625H11.25C11.1671 9.5625 11.0876 9.52958 11.029 9.47097C10.9704 9.41237 10.9375 9.33288 10.9375 9.25C10.9375 9.16712 10.9704 9.08763 11.029 9.02903C11.0876 8.97042 11.1671 8.9375 11.25 8.9375H13.75C13.8329 8.9375 13.9124 8.97042 13.971 9.02903C14.0296 9.08763 14.0625 9.16712 14.0625 9.25C14.0625 9.33288 14.0296 9.41237 13.971 9.47097C13.9124 9.52958 13.8329 9.5625 13.75 9.5625Z" fill="none" stroke="none" stroke-width="0.4"/>
</g>
<defs>
<clipPath id="clip0_77_302">
<rect width="20" height="20" fill="white" transform="translate(0 0.5)"/>
</clipPath>
</defs>
</svg>
