<svg width="20" height="20" viewBox="0 0 50 50" fill="none" xmlns="http://www.w3.org/2000/svg">
<path d="M45.77 7.5599H41.55V6.3299C41.55 5.6199 41.27 4.9499 40.76 4.4299C40.25 3.9299 39.58 3.6499 38.87 3.6499C37.39 3.6499 36.19 4.8499 36.19 6.3299V7.5499H32.3V6.3299C32.3 5.6199 32.02 4.9499 31.51 4.4299C31 3.9299 30.33 3.6499 29.62 3.6499C28.14 3.6499 26.94 4.8499 26.94 6.3299V7.5499H23.05V6.3299C23.05 5.6199 22.77 4.9499 22.26 4.4299C21.75 3.9299 21.08 3.6499 20.37 3.6499C18.89 3.6499 17.69 4.8499 17.69 6.3299V7.5499H13.8V6.3299C13.8 5.6199 13.52 4.9499 13.01 4.4299C12.5 3.9299 11.83 3.6499 11.12 3.6499C9.64 3.6499 8.44 4.8499 8.44 6.3299V7.5499H4.23C2.59 7.5499 1.25 8.8799 1.25 10.5299V43.3699C1.25 45.0099 2.58 46.3499 4.23 46.3499H45.78C47.42 46.3499 48.76 45.0199 48.76 43.3699V10.5299C48.75 8.8899 47.42 7.5599 45.77 7.5599ZM37.7 6.3299C37.7 5.6799 38.23 5.1499 38.88 5.1499C39.28 5.1499 39.56 5.3399 39.71 5.4899C39.87 5.6499 40.06 5.9299 40.06 6.3299V8.2999V8.3099V8.3199V10.4799C40.06 11.1299 39.53 11.6599 38.88 11.6599C38.23 11.6599 37.7 11.1299 37.7 10.4799V6.3299ZM28.45 6.3299C28.45 5.6799 28.98 5.1499 29.63 5.1499C30.03 5.1499 30.31 5.3399 30.46 5.4899C30.62 5.6499 30.81 5.9299 30.81 6.3299V8.2899C30.81 8.2999 30.81 8.2999 30.81 8.3099C30.81 8.3199 30.81 8.3199 30.81 8.3299V10.4899C30.81 11.1399 30.28 11.6699 29.63 11.6699C28.98 11.6699 28.45 11.1399 28.45 10.4899V6.3299ZM20.38 5.1499C20.78 5.1499 21.06 5.3399 21.21 5.4899C21.37 5.6499 21.56 5.9299 21.56 6.3299V10.4799C21.56 11.1299 21.03 11.6599 20.38 11.6599C19.73 11.6599 19.2 11.1299 19.2 10.4799V8.3199C19.2 8.3099 19.2 8.3099 19.2 8.3099V8.2999V6.3299C19.2 5.6799 19.72 5.1499 20.38 5.1499ZM11.12 5.1499C11.52 5.1499 11.8 5.3399 11.95 5.4899C12.11 5.6499 12.3 5.9299 12.3 6.3299V10.4799C12.3 11.1299 11.77 11.6599 11.12 11.6599C10.47 11.6599 9.94 11.1299 9.94 10.4799V8.3099C9.94 8.3099 9.94 8.3099 9.94 8.2999C9.94 8.2899 9.94 8.2999 9.94 8.2899V6.3299C9.95 5.6799 10.47 5.1499 11.12 5.1499ZM4.23 9.0599H8.45V10.4799C8.45 11.9599 9.65 13.1599 11.13 13.1599C12.61 13.1599 13.81 11.9599 13.81 10.4799V9.0599H17.7V10.4799C17.7 11.9599 18.9 13.1599 20.38 13.1599C21.86 13.1599 23.06 11.9599 23.06 10.4799V9.0599H26.95V10.4799C26.95 11.9599 28.15 13.1599 29.63 13.1599C31.11 13.1599 32.31 11.9599 32.31 10.4799V9.0599H36.2V10.4799C36.2 11.9599 37.4 13.1599 38.88 13.1599C40.36 13.1599 41.56 11.9599 41.56 10.4799V9.0599H45.78C46.59 9.0599 47.26 9.7199 47.26 10.5399V15.9199H2.75V10.5399C2.75 9.7199 3.41 9.0599 4.23 9.0599ZM45.77 44.8499H4.23C3.42 44.8499 2.75 44.1899 2.75 43.3699V17.4099H47.25V43.3699C47.25 44.1799 46.59 44.8499 45.77 44.8499Z" fill="none"/>
<path d="M23.0102 19.99H18.2402C17.8302 19.99 17.4902 20.33 17.4902 20.74V25.51C17.4902 25.92 17.8302 26.26 18.2402 26.26H23.0102C23.4202 26.26 23.7602 25.92 23.7602 25.51V20.74C23.7602 20.33 23.4302 19.99 23.0102 19.99ZM22.2602 24.76H19.0002V21.49H22.2702V24.76H22.2602Z" fill="none"/>
<path d="M31.7505 19.99H26.9805C26.5705 19.99 26.2305 20.33 26.2305 20.74V25.51C26.2305 25.92 26.5705 26.26 26.9805 26.26H31.7505C32.1605 26.26 32.5005 25.92 32.5005 25.51V20.74C32.5005 20.33 32.1705 19.99 31.7505 19.99ZM31.0005 24.76H27.7305V21.49H31.0005V24.76Z" fill="none"/>
<path d="M40.4897 19.99H35.7197C35.3097 19.99 34.9697 20.33 34.9697 20.74V25.51C34.9697 25.92 35.3097 26.26 35.7197 26.26H40.4897C40.8997 26.26 41.2397 25.92 41.2397 25.51V20.74C41.2397 20.33 40.9097 19.99 40.4897 19.99ZM39.7397 24.76H36.4697V21.49H39.7397V24.76Z" fill="none"/>
<path d="M14.2798 28.3599H9.50977C9.09977 28.3599 8.75977 28.6999 8.75977 29.1099V33.8799C8.75977 34.2899 9.09977 34.6299 9.50977 34.6299H14.2798C14.6898 34.6299 15.0298 34.2899 15.0298 33.8799V29.1099C15.0298 28.6899 14.6898 28.3599 14.2798 28.3599ZM13.5298 33.1299H10.2598V29.8599H13.5298V33.1299Z" fill="none"/>
<path d="M23.0102 28.3599H18.2402C17.8302 28.3599 17.4902 28.6999 17.4902 29.1099V33.8799C17.4902 34.2899 17.8302 34.6299 18.2402 34.6299H23.0102C23.4202 34.6299 23.7602 34.2899 23.7602 33.8799V29.1099C23.7602 28.6899 23.4302 28.3599 23.0102 28.3599ZM22.2602 33.1299H19.0002V29.8599H22.2702V33.1299H22.2602Z" fill="none"/>
<path d="M31.7505 28.3599H26.9805C26.5705 28.3599 26.2305 28.6999 26.2305 29.1099V33.8799C26.2305 34.2899 26.5705 34.6299 26.9805 34.6299H31.7505C32.1605 34.6299 32.5005 34.2899 32.5005 33.8799V29.1099C32.5005 28.6899 32.1705 28.3599 31.7505 28.3599ZM31.0005 33.1299H27.7305V29.8599H31.0005V33.1299Z" fill="none"/>
<path d="M40.4897 28.3599H35.7197C35.3097 28.3599 34.9697 28.6999 34.9697 29.1099V33.8799C34.9697 34.2899 35.3097 34.6299 35.7197 34.6299H40.4897C40.8997 34.6299 41.2397 34.2899 41.2397 33.8799V29.1099C41.2397 28.6899 40.9097 28.3599 40.4897 28.3599ZM39.7397 33.1299H36.4697V29.8599H39.7397V33.1299Z" fill="none"/>
<path d="M14.2798 36.73H9.50977C9.09977 36.73 8.75977 37.07 8.75977 37.48V42.25C8.75977 42.66 9.09977 43 9.50977 43H14.2798C14.6898 43 15.0298 42.66 15.0298 42.25V37.48C15.0298 37.06 14.6898 36.73 14.2798 36.73ZM13.5298 41.49H10.2598V38.22H13.5298V41.49Z" fill="none"/>
<path d="M23.0102 36.73H18.2402C17.8302 36.73 17.4902 37.07 17.4902 37.48V42.25C17.4902 42.66 17.8302 43 18.2402 43H23.0102C23.4202 43 23.7602 42.66 23.7602 42.25V37.48C23.7602 37.06 23.4302 36.73 23.0102 36.73ZM22.2602 41.49H19.0002V38.22H22.2702V41.49H22.2602Z" fill="none"/>
<path d="M31.7505 36.73H26.9805C26.5705 36.73 26.2305 37.07 26.2305 37.48V42.25C26.2305 42.66 26.5705 43 26.9805 43H31.7505C32.1605 43 32.5005 42.66 32.5005 42.25V37.48C32.5005 37.06 32.1705 36.73 31.7505 36.73ZM31.0005 41.49H27.7305V38.22H31.0005V41.49Z" fill="none"/>
</svg>
