<svg width="24" height="22" viewBox="0 0 24 22" fill="none" xmlns="http://www.w3.org/2000/svg">
<g clip-path="url(#clip0_87_407)">
<path d="M16.5833 18.3333H3.29167C2.0285 18.3333 1 17.3048 1 16.0417V2.29167C1 1.0285 2.0285 0 3.29167 0H10.625C10.8212 0 10.9953 0.124667 11.0586 0.309833L17.0169 17.7265C17.0646 17.8658 17.0417 18.0208 16.9564 18.1408C16.8702 18.2618 16.7318 18.3333 16.5833 18.3333ZM3.29167 0.916667C2.53358 0.916667 1.91667 1.53358 1.91667 2.29167V16.0417C1.91667 16.7998 2.53358 17.4167 3.29167 17.4167H15.9417L10.2977 0.916667H3.29167Z" fill="none" stroke="none" stroke-width="0.4"/>
<path d="M20.7083 22H13.375C13.1843 22 13.0129 21.8818 12.946 21.703L11.571 18.0364C11.482 17.7989 11.6021 17.5349 11.8386 17.446C12.076 17.358 12.34 17.4772 12.429 17.7137L13.693 21.0834H20.7083C21.4664 21.0834 22.0833 20.4664 22.0833 19.7084V5.95835C22.0833 5.20027 21.4664 4.58335 20.7083 4.58335H12C11.747 4.58335 11.5416 4.37802 11.5416 4.12502C11.5416 3.87202 11.747 3.66669 12 3.66669H20.7083C21.9715 3.66669 23 4.69519 23 5.95835V19.7084C23 20.9715 21.9715 22 20.7083 22Z" fill="none" stroke="none" stroke-width="0.4"/>
<path d="M13.375 22C13.2677 22 13.1605 21.9624 13.0734 21.8864C12.8827 21.7195 12.8635 21.4299 13.0303 21.2392L16.2386 17.5725C16.4055 17.3809 16.6951 17.3626 16.8858 17.5294C17.0765 17.6963 17.0957 17.9859 16.9289 18.1766L13.7205 21.8433C13.6289 21.9469 13.5024 22 13.375 22Z" fill="none" stroke="none" stroke-width="0.4"/>
<path d="M9.7083 12.8333C9.51947 12.8333 9.34347 12.7169 9.27655 12.529L7.41663 7.32141L5.55672 12.529C5.47147 12.7673 5.20838 12.892 4.97097 12.8067C4.73263 12.7215 4.60797 12.4593 4.69322 12.221L6.98488 5.80433C7.11505 5.43949 7.71822 5.43949 7.84747 5.80433L10.1391 12.221C10.2244 12.4593 10.1006 12.7215 9.86138 12.8067C9.81188 12.8251 9.75963 12.8333 9.7083 12.8333Z" fill="none" stroke="none" stroke-width="0.4"/>
<path d="M8.33329 10.0834H6.49996C6.24696 10.0834 6.04163 9.87802 6.04163 9.62502C6.04163 9.37202 6.24696 9.16669 6.49996 9.16669H8.33329C8.58629 9.16669 8.79163 9.37202 8.79163 9.62502C8.79163 9.87802 8.58629 10.0834 8.33329 10.0834Z" fill="none" stroke="none" stroke-width="0.4"/>
<path d="M20.7084 10.0834H14.2917C14.0387 10.0834 13.8334 9.87802 13.8334 9.62502C13.8334 9.37202 14.0387 9.16669 14.2917 9.16669H20.7084C20.9614 9.16669 21.1667 9.37202 21.1667 9.62502C21.1667 9.87802 20.9614 10.0834 20.7084 10.0834Z" fill="none" stroke="none" stroke-width="0.4"/>
<path d="M17.0417 10.0833C16.7887 10.0833 16.5834 9.878 16.5834 9.625V8.70833C16.5834 8.45533 16.7887 8.25 17.0417 8.25C17.2947 8.25 17.5 8.45533 17.5 8.70833V9.625C17.5 9.878 17.2947 10.0833 17.0417 10.0833Z" fill="none" stroke="none" stroke-width="0.4"/>
<path d="M15.6666 15.5834C15.5227 15.5834 15.3815 15.5164 15.2926 15.3909C15.146 15.1846 15.1945 14.8986 15.4008 14.7519C17.4074 13.3265 18.875 10.4189 18.875 9.62594C18.875 9.37294 19.0803 9.1676 19.3333 9.1676C19.5863 9.1676 19.7916 9.37294 19.7916 9.62594C19.7916 10.8341 18.0252 14.0122 15.9325 15.4999C15.8518 15.5559 15.7592 15.5834 15.6666 15.5834Z" fill="none" stroke="none" stroke-width="0.4"/>
<path d="M19.3333 16.5C19.2224 16.5 19.1115 16.4606 19.0244 16.3799C18.6917 16.0756 15.7629 13.3705 15.2423 12.089C15.1469 11.8543 15.2606 11.5876 15.4943 11.4922C15.7263 11.3978 15.9957 11.5097 16.0911 11.7443C16.466 12.6674 18.7824 14.9151 19.6432 15.7034C19.8302 15.8748 19.8421 16.1636 19.6716 16.3515C19.5808 16.4496 19.4571 16.5 19.3333 16.5Z" fill="none" stroke="none" stroke-width="0.4"/>
</g>
<defs>
<clipPath id="clip0_87_407">
<rect width="24" height="22" fill="white"/>
</clipPath>
</defs>
</svg>
