<svg width="20" height="21" viewBox="0 0 20 21" fill="none" xmlns="http://www.w3.org/2000/svg">
<path d="M14.6875 18.3127H5.31251C4.89811 18.3127 4.50068 18.1481 4.20765 17.855C3.91463 17.562 3.75001 17.1646 3.75001 16.7502V12.0627H3.36251C3.13727 12.0558 2.91918 11.9819 2.73607 11.8506C2.55296 11.7192 2.41312 11.5363 2.33438 11.3252C2.20436 11.0414 2.15766 10.7266 2.19971 10.4173C2.24175 10.108 2.37083 9.81705 2.57188 9.57831L7.90313 3.66268C8.16069 3.35748 8.48177 3.11219 8.84394 2.94392C9.20612 2.77565 9.60066 2.68848 10 2.68848C10.3994 2.68848 10.7939 2.77565 11.1561 2.94392C11.5182 3.11219 11.8393 3.35748 12.0969 3.66268L17.4281 9.57831C17.6292 9.81705 17.7583 10.108 17.8003 10.4173C17.8424 10.7266 17.7957 11.0414 17.6656 11.3252C17.5869 11.5363 17.4471 11.7192 17.2639 11.8506C17.0808 11.9819 16.8628 12.0558 16.6375 12.0627H16.25V16.7502C16.25 17.1646 16.0854 17.562 15.7924 17.855C15.4993 18.1481 15.1019 18.3127 14.6875 18.3127ZM10 3.31268C9.68856 3.31708 9.38164 3.38793 9.09978 3.5205C8.81792 3.65308 8.56762 3.84432 8.36563 4.08143L3.03438 9.99706C2.91658 10.1473 2.84208 10.3268 2.81895 10.5163C2.79582 10.7057 2.82493 10.8979 2.90313 11.0721C2.93799 11.1698 2.99948 11.2558 3.08065 11.3204C3.16183 11.385 3.25946 11.4256 3.36251 11.4377H4.06251C4.14539 11.4377 4.22487 11.4706 4.28348 11.5292C4.34208 11.5878 4.37501 11.6673 4.37501 11.7502V16.7502C4.37501 16.9988 4.47378 17.2373 4.6496 17.4131C4.82541 17.5889 5.06387 17.6877 5.31251 17.6877H14.6875C14.9361 17.6877 15.1746 17.5889 15.3504 17.4131C15.5262 17.2373 15.625 16.9988 15.625 16.7502V11.7502C15.625 11.6673 15.6579 11.5878 15.7165 11.5292C15.7751 11.4706 15.8546 11.4377 15.9375 11.4377H16.6375C16.7406 11.4256 16.8382 11.385 16.9194 11.3204C17.0005 11.2558 17.062 11.1698 17.0969 11.0721C17.1751 10.8979 17.2042 10.7057 17.1811 10.5163C17.1579 10.3268 17.0834 10.1473 16.9656 9.99706L11.6344 4.08143C11.4324 3.84432 11.1821 3.65308 10.9002 3.5205C10.6184 3.38793 10.3115 3.31708 10 3.31268Z" fill="none" stroke="none" stroke-width="0.4"/>
<path d="M11.875 18.3125H8.125C8.04212 18.3125 7.96263 18.2796 7.90403 18.221C7.84542 18.1624 7.8125 18.0829 7.8125 18V13C7.8125 12.4198 8.04297 11.8634 8.4532 11.4532C8.86344 11.043 9.41984 10.8125 10 10.8125C10.5802 10.8125 11.1366 11.043 11.5468 11.4532C11.957 11.8634 12.1875 12.4198 12.1875 13V18C12.1875 18.0829 12.1546 18.1624 12.096 18.221C12.0374 18.2796 11.9579 18.3125 11.875 18.3125ZM8.4375 17.6875H11.5625V13C11.5625 12.5856 11.3979 12.1882 11.1049 11.8951C10.8118 11.6021 10.4144 11.4375 10 11.4375C9.5856 11.4375 9.18817 11.6021 8.89515 11.8951C8.60212 12.1882 8.4375 12.5856 8.4375 13V17.6875Z" fill="none" stroke="none" stroke-width="0.4"/>
</svg>
