<svg width="20" height="21" viewBox="0 0 20 21" fill="none" xmlns="http://www.w3.org/2000/svg">
<path d="M15.9375 18.3125C15.8546 18.3125 15.7751 18.2796 15.7165 18.221C15.6579 18.1624 15.625 18.0829 15.625 18V16.4375C15.625 14.9457 15.0324 13.5149 13.9775 12.46C12.9226 11.4051 11.4918 10.8125 10 10.8125C8.50816 10.8125 7.07742 11.4051 6.02252 12.46C4.96763 13.5149 4.375 14.9457 4.375 16.4375V18C4.375 18.0829 4.34208 18.1624 4.28347 18.221C4.22487 18.2796 4.14538 18.3125 4.0625 18.3125C3.97962 18.3125 3.90013 18.2796 3.84153 18.221C3.78292 18.1624 3.75 18.0829 3.75 18V16.4375C3.75 14.7799 4.40848 13.1902 5.58058 12.0181C6.75269 10.846 8.3424 10.1875 10 10.1875C11.6576 10.1875 13.2473 10.846 14.4194 12.0181C15.5915 13.1902 16.25 14.7799 16.25 16.4375V18C16.25 18.0829 16.2171 18.1624 16.1585 18.221C16.0999 18.2796 16.0204 18.3125 15.9375 18.3125Z" fill="none" stroke="none" stroke-width="0.4"/>
<path d="M10 8.9375C9.38194 8.9375 8.77775 8.75422 8.26384 8.41084C7.74994 8.06746 7.3494 7.57941 7.11288 7.00839C6.87635 6.43737 6.81447 5.80904 6.93505 5.20284C7.05563 4.59665 7.35325 4.03983 7.79029 3.60279C8.22733 3.16575 8.78415 2.86813 9.39034 2.74755C9.99654 2.62697 10.6249 2.68885 11.1959 2.92538C11.7669 3.1619 12.255 3.56244 12.5983 4.07634C12.9417 4.59025 13.125 5.19443 13.125 5.8125C13.125 6.6413 12.7958 7.43616 12.2097 8.02221C11.6237 8.60826 10.8288 8.9375 10 8.9375ZM10 3.3125C9.50555 3.3125 9.0222 3.45912 8.61108 3.73383C8.19995 4.00853 7.87952 4.39898 7.6903 4.85579C7.50108 5.31261 7.45158 5.81527 7.54804 6.30023C7.6445 6.78518 7.8826 7.23064 8.23223 7.58027C8.58187 7.9299 9.02732 8.168 9.51228 8.26446C9.99723 8.36093 10.4999 8.31142 10.9567 8.1222C11.4135 7.93298 11.804 7.61255 12.0787 7.20143C12.3534 6.7903 12.5 6.30695 12.5 5.8125C12.5 5.14946 12.2366 4.51358 11.7678 4.04473C11.2989 3.57589 10.663 3.3125 10 3.3125Z" fill="none" stroke="none" stroke-width="0.4"/>
</svg>
