<svg width="22" height="22" viewBox="0 0 22 22" fill="none" xmlns="http://www.w3.org/2000/svg">
<g clip-path="url(#clip0_18_248)">
<path d="M3.982 4.23841C4.09977 4.41505 4.27642 4.47394 4.45306 4.47394C4.57083 4.47394 4.68859 4.41505 4.80636 4.35617C5.04189 4.17952 5.10077 3.76735 4.92412 3.53182L4.57083 3.06076C4.39418 2.82523 4.04089 2.76635 3.74647 2.943C3.51095 3.11964 3.45206 3.53182 3.62871 3.76735L3.982 4.23841ZM0.979005 13.5418L0.390182 13.7185C0.0957698 13.8362 -0.0808771 14.1306 0.0368876 14.4839C0.0957699 14.7195 0.331299 14.8961 0.625711 14.8961H0.802358L1.39118 14.7195C1.68559 14.6017 1.86224 14.3073 1.74448 13.954C1.62671 13.6596 1.27342 13.4829 0.979005 13.5418ZM9.87024 2.76635C10.2235 2.76635 10.4591 2.53082 10.4591 2.17752V1.5887C10.4591 1.23541 10.2235 0.999878 9.87024 0.999878C9.51694 0.999878 9.28141 1.23541 9.28141 1.5887V2.17752C9.28141 2.53082 9.51694 2.76635 9.87024 2.76635ZM0.449064 8.89011C0.449064 8.89011 1.15565 9.12564 1.21453 9.12564C1.45006 9.12564 1.68559 8.94899 1.80336 8.71347C1.92112 8.41905 1.74448 8.06576 1.45006 7.94799L0.86124 7.77135C0.566829 7.65358 0.213535 7.83023 0.0957699 8.12464C-0.0808772 8.41905 0.0957698 8.77235 0.449064 8.89011ZM3.982 18.3702L3.62871 18.8412C3.45206 19.0768 3.51095 19.4889 3.74647 19.6656C3.86424 19.7245 3.982 19.7833 4.09977 19.7833C4.27642 19.7833 4.45306 19.7245 4.57083 19.5478L4.92412 19.0768C5.10077 18.8412 5.04189 18.4291 4.80636 18.2524C4.57083 18.0169 4.21753 18.0758 3.982 18.3702ZM21.7645 10.2444C21.5878 10.1266 21.3523 10.0678 21.1756 10.1266C20.6457 10.3033 20.0569 10.4211 19.4681 10.3033C17.5838 10.0089 16.2295 8.24241 16.5239 6.35817C16.6417 5.65158 16.9361 5.00388 17.4661 4.47394C17.6427 4.29729 17.6427 4.06176 17.5838 3.88511C17.5249 3.64958 17.2894 3.53182 16.995 3.47294C15.5818 3.23741 14.1686 3.5907 12.991 4.29729C12.0489 3.88511 10.989 3.64958 9.92912 3.64958C5.68959 3.5907 2.21553 7.06476 2.21553 11.3043C2.21553 15.5438 5.68959 19.0179 9.92912 19.0179C12.5788 19.0179 15.0519 17.6636 16.4651 15.4261C19.0559 15.3083 21.3523 13.4829 22 10.8332C22 10.5977 21.9411 10.3622 21.7645 10.2444ZM9.92912 17.8402C6.3373 17.8402 3.39318 14.8961 3.39318 11.3043C3.39318 7.71247 6.3373 4.76835 9.92912 4.76835C10.6357 4.76835 11.2834 4.88611 11.9311 5.06276C10.989 5.94599 10.4002 7.12364 10.1646 8.47794C9.69359 11.7165 11.8722 14.7195 15.0519 15.2494C13.8154 16.8981 11.9311 17.8402 9.92912 17.8402ZM15.4052 14.1895C12.7555 13.7773 10.9301 11.3632 11.2834 8.71347C11.6367 6.35817 13.5798 4.65058 15.8762 4.5917C15.5818 5.06276 15.4052 5.65158 15.3463 6.24041C14.993 8.77235 16.7595 11.1276 19.2914 11.5398C19.7036 11.5987 20.0569 11.5987 20.4691 11.5398C19.5858 13.3652 17.5249 14.4839 15.4052 14.1895ZM15.6996 18.3702C15.5229 18.1346 15.1696 18.0758 14.8752 18.2524C14.6397 18.4291 14.5808 18.8412 14.7575 19.0768L15.1108 19.5478C15.2285 19.7245 15.4052 19.7833 15.5818 19.7833C15.6996 19.7833 15.8174 19.7245 15.9351 19.6656C16.1706 19.4889 16.2295 19.0768 16.0529 18.8412L15.6996 18.3702ZM9.87024 19.8422C9.51694 19.8422 9.28141 20.0778 9.28141 20.4311V21.0199C9.28141 21.3732 9.51694 21.6087 9.87024 21.6087C10.2235 21.6087 10.4591 21.3732 10.4591 21.0199V20.4311C10.4591 20.0778 10.1646 19.8422 9.87024 19.8422Z" fill="none"/>
</g>
<defs>
<clipPath id="clip0_18_248">
<rect width="22" height="22" fill="white"/>
</clipPath>
</defs>
</svg>
